<svg width="115" height="46" viewBox="0 0 115 46" fill="none" xmlns="http://www.w3.org/2000/svg">
<rect x="4" y="3" width="107" height="40" stroke="black" stroke-width="6"/>
<path d="M18.9599 31.238C17.9852 31.238 17.0445 31.119 16.1379 30.881C15.2425 30.6317 14.5115 30.3143 13.9449 29.929L15.0499 27.447C15.5825 27.787 16.1945 28.0703 16.8859 28.297C17.5885 28.5123 18.2855 28.62 18.9769 28.62C19.4415 28.62 19.8155 28.5803 20.0989 28.501C20.3822 28.4103 20.5862 28.297 20.7109 28.161C20.8469 28.0137 20.9149 27.8437 20.9149 27.651C20.9149 27.379 20.7902 27.1637 20.5409 27.005C20.2915 26.8463 19.9685 26.716 19.5719 26.614C19.1752 26.512 18.7332 26.41 18.2459 26.308C17.7699 26.206 17.2882 26.0757 16.8009 25.917C16.3249 25.7583 15.8885 25.5543 15.4919 25.305C15.0952 25.0443 14.7722 24.71 14.5229 24.302C14.2735 23.8827 14.1489 23.3557 14.1489 22.721C14.1489 22.007 14.3415 21.361 14.7269 20.783C15.1235 20.205 15.7129 19.7403 16.4949 19.389C17.2769 19.0377 18.2515 18.862 19.4189 18.862C20.2009 18.862 20.9659 18.9527 21.7139 19.134C22.4732 19.304 23.1475 19.559 23.7369 19.899L22.6999 22.398C22.1332 22.092 21.5722 21.8653 21.0169 21.718C20.4615 21.5593 19.9232 21.48 19.4019 21.48C18.9372 21.48 18.5632 21.531 18.2799 21.633C17.9965 21.7237 17.7925 21.8483 17.6679 22.007C17.5432 22.1657 17.4809 22.347 17.4809 22.551C17.4809 22.8117 17.5999 23.0213 17.8379 23.18C18.0872 23.3273 18.4102 23.452 18.8069 23.554C19.2149 23.6447 19.6569 23.741 20.1329 23.843C20.6202 23.945 21.1019 24.0753 21.5779 24.234C22.0652 24.3813 22.5072 24.5853 22.9039 24.846C23.3005 25.0953 23.6179 25.4297 23.8559 25.849C24.1052 26.257 24.2299 26.7727 24.2299 27.396C24.2299 28.0873 24.0315 28.7277 23.6349 29.317C23.2495 29.895 22.6659 30.3597 21.8839 30.711C21.1132 31.0623 20.1385 31.238 18.9599 31.238ZM34.7607 19.1H38.1267V31H34.7607V19.1ZM30.1707 31H26.8047V19.1H30.1707V31ZM34.9987 26.359H29.9327V23.571H34.9987V26.359ZM60.1207 31V19.1H65.5607C66.6487 19.1 67.5837 19.2757 68.3657 19.627C69.1591 19.9783 69.7711 20.4883 70.2017 21.157C70.6324 21.8143 70.8477 22.5963 70.8477 23.503C70.8477 24.3983 70.6324 25.1747 70.2017 25.832C69.7711 26.4893 69.1591 26.9993 68.3657 27.362C67.5837 27.7133 66.6487 27.889 65.5607 27.889H61.9907L63.4867 26.427V31H60.1207ZM63.4867 26.784L61.9907 25.237H65.3567C66.0594 25.237 66.5807 25.084 66.9207 24.778C67.2721 24.472 67.4477 24.047 67.4477 23.503C67.4477 22.9477 67.2721 22.517 66.9207 22.211C66.5807 21.905 66.0594 21.752 65.3567 21.752H61.9907L63.4867 20.205V26.784ZM73.5089 31V19.1H76.2799L82.8419 27.022H81.5329V19.1H84.8309V31H82.0599L75.4979 23.078H76.8069V31H73.5089ZM94.2262 31.238C93.2742 31.238 92.3959 31.085 91.5912 30.779C90.7865 30.473 90.0839 30.0423 89.4832 29.487C88.8939 28.9203 88.4349 28.263 88.1062 27.515C87.7775 26.767 87.6132 25.9453 87.6132 25.05C87.6132 24.1547 87.7775 23.333 88.1062 22.585C88.4349 21.837 88.8939 21.1853 89.4832 20.63C90.0839 20.0633 90.7865 19.627 91.5912 19.321C92.3959 19.015 93.2742 18.862 94.2262 18.862C95.1895 18.862 96.0679 19.015 96.8612 19.321C97.6659 19.627 98.3629 20.0633 98.9522 20.63C99.5415 21.1853 100.001 21.837 100.329 22.585C100.669 23.333 100.839 24.1547 100.839 25.05C100.839 25.9453 100.669 26.7727 100.329 27.532C100.001 28.28 99.5415 28.9317 98.9522 29.487C98.3629 30.0423 97.6659 30.473 96.8612 30.779C96.0679 31.085 95.1895 31.238 94.2262 31.238ZM94.2262 28.45C94.6795 28.45 95.0989 28.3707 95.4842 28.212C95.8809 28.0533 96.2209 27.8267 96.5042 27.532C96.7989 27.226 97.0255 26.8633 97.1842 26.444C97.3542 26.0247 97.4392 25.56 97.4392 25.05C97.4392 24.5287 97.3542 24.064 97.1842 23.656C97.0255 23.2367 96.7989 22.8797 96.5042 22.585C96.2209 22.279 95.8809 22.0467 95.4842 21.888C95.0989 21.7293 94.6795 21.65 94.2262 21.65C93.7729 21.65 93.3479 21.7293 92.9512 21.888C92.5659 22.0467 92.2259 22.279 91.9312 22.585C91.6479 22.8797 91.4212 23.2367 91.2512 23.656C91.0925 24.064 91.0132 24.5287 91.0132 25.05C91.0132 25.56 91.0925 26.0247 91.2512 26.444C91.4212 26.8633 91.6479 27.226 91.9312 27.532C92.2259 27.8267 92.5659 28.0533 92.9512 28.212C93.3479 28.3707 93.7729 28.45 94.2262 28.45Z" fill="black"/>
<path d="M48.794 31.294C47.618 31.294 46.533 31.105 45.539 30.727C44.545 30.349 43.677 29.817 42.935 29.131C42.207 28.431 41.64 27.619 41.234 26.695C40.828 25.771 40.625 24.756 40.625 23.65C40.625 22.544 40.828 21.529 41.234 20.605C41.64 19.681 42.207 18.876 42.935 18.19C43.677 17.49 44.545 16.951 45.539 16.573C46.533 16.195 47.618 16.006 48.794 16.006C49.984 16.006 51.069 16.195 52.049 16.573C53.043 16.951 53.904 17.49 54.632 18.19C55.36 18.876 55.927 19.681 56.333 20.605C56.753 21.529 56.963 22.544 56.963 23.65C56.963 24.756 56.753 25.778 56.333 26.716C55.927 27.64 55.36 28.445 54.632 29.131C53.904 29.817 53.043 30.349 52.049 30.727C51.069 31.105 49.984 31.294 48.794 31.294ZM48.794 27.85C49.354 27.85 49.872 27.752 50.348 27.556C50.838 27.36 51.258 27.08 51.608 26.716C51.972 26.338 52.252 25.89 52.448 25.372C52.658 24.854 52.763 24.28 52.763 23.65C52.763 23.006 52.658 22.432 52.448 21.928C52.252 21.41 51.972 20.969 51.608 20.605C51.258 20.227 50.838 19.94 50.348 19.744C49.872 19.548 49.354 19.45 48.794 19.45C48.234 19.45 47.709 19.548 47.219 19.744C46.743 19.94 46.323 20.227 45.959 20.605C45.609 20.969 45.329 21.41 45.119 21.928C44.923 22.432 44.825 23.006 44.825 23.65C44.825 24.28 44.923 24.854 45.119 25.372C45.329 25.89 45.609 26.338 45.959 26.716C46.323 27.08 46.743 27.36 47.219 27.556C47.709 27.752 48.234 27.85 48.794 27.85Z" fill="#77EFE5"/>
</svg>
