<svg width="38" height="48" viewBox="0 0 38 48" fill="none" xmlns="http://www.w3.org/2000/svg">
  <path d="M32.9705 4.9188C29.6664 1.74694 25.0939 0 20.0954 0C12.46 0 7.7639 3.12986 5.16889 5.75534C1.97069 8.99094 0.136841 13.2872 0.136841 17.5428C0.136841 22.8859 2.37176 26.9869 6.11436 28.5126C6.36562 28.6155 6.61846 28.6674 6.86634 28.6674C7.6559 28.6674 8.2815 28.1507 8.49825 27.322C8.62462 26.8466 8.91731 25.6737 9.04463 25.1646C9.31706 24.1591 9.09694 23.6754 8.50275 22.9752C7.42031 21.6944 6.91621 20.1799 6.91621 18.2088C6.91621 12.354 11.2758 6.13156 19.3559 6.13156C25.7671 6.13156 29.7496 9.77545 29.7496 15.641C29.7496 19.3425 28.9523 22.7704 27.5042 25.2937C26.4978 27.047 24.7283 29.137 22.0118 29.137C20.8371 29.137 19.7819 28.6544 19.116 27.8131C18.4871 27.0178 18.2797 25.9905 18.5327 24.9198C18.8185 23.71 19.2082 22.4482 19.5854 21.2283C20.2732 19.0002 20.9235 16.8958 20.9235 15.2168C20.9235 12.345 19.1579 10.4154 16.5306 10.4154C13.1916 10.4154 10.5757 13.8067 10.5757 18.1361C10.5757 20.2594 11.1399 21.8475 11.3954 22.4572C10.9748 24.2394 8.47481 34.8351 8.00062 36.8331C7.7264 37.9995 6.07471 47.2117 8.80856 47.9463C11.8802 48.7716 14.6259 39.7995 14.9053 38.7857C15.1318 37.9611 15.9243 34.8433 16.4099 32.9267C17.8928 34.355 20.2803 35.3206 22.6035 35.3206C26.983 35.3206 30.9216 33.3498 33.6939 29.7716C36.3826 26.301 37.8634 21.4637 37.8634 16.1514C37.8632 11.9985 36.0797 7.90419 32.9705 4.9188Z" fill="#2B3131"/>
</svg>
