<svg width="60" height="48" viewBox="0 0 60 48" fill="none" xmlns="http://www.w3.org/2000/svg">
  <path d="M18.5743 48C40.8629 48 53.0517 29.5349 53.0517 13.5226C53.0517 12.9982 53.041 12.4762 53.0174 11.9563C55.3889 10.2403 57.4357 8.11553 59.0619 5.68156C56.8907 6.64675 54.5542 7.29642 52.1034 7.58935C54.6049 6.08904 56.5256 3.71609 57.4317 0.887105C55.0529 2.29828 52.4507 3.29302 49.7371 3.82846C47.5259 1.47316 44.3781 0 40.8921 0C34.2003 0 28.7738 5.42668 28.7738 12.1158C28.7738 13.0668 28.8803 13.9917 29.0882 14.8788C19.0171 14.3721 10.0868 9.55025 4.1101 2.21836C3.03366 4.06746 2.46743 6.16919 2.46927 8.30878C2.46927 12.5128 4.60855 16.2242 7.86166 18.3953C5.93742 18.3366 4.05539 17.8169 2.37374 16.8798C2.37196 16.9307 2.37196 16.9803 2.37196 17.0346C2.37196 22.903 6.54884 27.8027 12.0934 28.913C11.0521 29.1966 9.97751 29.3401 8.8982 29.3395C8.13385 29.339 7.37128 29.2658 6.62079 29.1209C8.16351 33.9355 12.6369 37.4392 17.9405 37.5371C13.7931 40.7878 8.56861 42.7239 2.89042 42.7239C1.91354 42.7239 0.948544 42.6685 0 42.5563C5.36286 45.9937 11.7302 48 18.5743 48Z" fill="#2B3131"/>
</svg>
